<svg xmlns="http://www.w3.org/2000/svg" viewBox="0 0 107.11 196.32"><title>design</title><g id="Layer_2" data-name="Layer 2"><g id="Layer_1-2" data-name="Layer 1"><path d="M53.71,41.91A32.12,32.12,0,1,1,21.59,74,32.12,32.12,0,0,1,53.71,41.91Z" style="fill:none;stroke:#666;stroke-linecap:square;stroke-miterlimit:10;stroke-width:5px"/><path d="M53.71,41.91A32,32,0,0,1,66,44.35V15.66L40.87,3.93V44.59A31.94,31.94,0,0,1,53.71,41.91Z" style="fill:none;stroke:#666;stroke-linecap:square;stroke-miterlimit:10;stroke-width:5px"/><path d="M65.72,74a12,12,0,1,1-12-12A12,12,0,0,1,65.72,74Z" style="fill:none;stroke:#5bd49c;stroke-linecap:square;stroke-miterlimit:10;stroke-width:5px"/><polyline points="27.24 97.9 2.64 157.3 11.41 188.68 45.82 105.59" style="fill:none;stroke:#666;stroke-linecap:square;stroke-miterlimit:10;stroke-width:5px"/><polyline points="79.87 97.9 104.47 157.3 95.7 188.68 61.29 105.59" style="fill:none;stroke:#666;stroke-linecap:square;stroke-miterlimit:10;stroke-width:5px"/><path d="M38.84,168.7s15.08,7.55,29.75,0" style="fill:none;stroke:#5bd49c;stroke-linecap:square;stroke-miterlimit:10;stroke-width:5px"/></g></g></svg>