<svg xmlns="http://www.w3.org/2000/svg" viewBox="0 0 80.8 148.58"><title>icon</title><g id="Layer_2" data-name="Layer 2"><g id="Layer_1-2" data-name="Layer 1"><g id="icon"><path d="M40.51,32.09A23.82,23.82,0,1,1,16.7,55.91,23.82,23.82,0,0,1,40.51,32.09Z" style="fill:none;stroke:#444;stroke-linecap:square;stroke-miterlimit:10;stroke-width:5px"/><path d="M40.51,32.09a23.85,23.85,0,0,1,9.12,1.81V12.62L31,3.93V34.08A23.82,23.82,0,0,1,40.51,32.09Z" style="fill:none;stroke:#444;stroke-linecap:square;stroke-miterlimit:10;stroke-width:5px"/><path d="M49.42,55.91a8.91,8.91,0,1,1-8.9-8.9A8.91,8.91,0,0,1,49.42,55.91Z" style="fill:none;stroke:#5bd49c;stroke-linecap:square;stroke-miterlimit:10;stroke-width:5px"/><polyline points="20.89 73.62 2.64 117.67 9.14 140.94 34.66 79.32" style="fill:none;stroke:#444;stroke-linecap:square;stroke-miterlimit:10;stroke-width:5px"/><polyline points="59.91 73.62 78.16 117.67 71.65 140.94 46.13 79.32" style="fill:none;stroke:#444;stroke-linecap:square;stroke-miterlimit:10;stroke-width:5px"/><path d="M29.49,126.12s11.18,5.6,22.05,0" style="fill:none;stroke:#5bd49c;stroke-linecap:square;stroke-miterlimit:10;stroke-width:5px"/></g></g></g></svg>