<?xml version="1.0" encoding="UTF-8"?>
<svg width="189px" height="191px" viewBox="0 0 189 191" version="1.1" xmlns="http://www.w3.org/2000/svg" xmlns:xlink="http://www.w3.org/1999/xlink">
    <!-- Generator: Sketch 45 (43475) - http://www.bohemiancoding.com/sketch -->
    <title>icon-mouse</title>
    <desc>Created with Sketch.</desc>
    <defs></defs>
    <g id="Page-1" stroke="none" stroke-width="1" fill="none" fill-rule="evenodd">
        <g id="icon-mouse">
            <g id="mouse" transform="translate(-13.000000, 10.000000)">
                <g transform="translate(81.670833, 104.670833) rotate(45.000000) translate(-81.670833, -104.670833) translate(40.670833, 30.170833)">
                    <path d="M0,40.797619 C0,18.2657162 18.2657162,0 40.797619,0 C63.3295219,0 81.5952381,18.2657162 81.5952381,40.797619 C81.5952381,51.2466296 81.5952381,97.7533704 81.5952381,108.202381 C81.5952381,130.734284 63.3295219,149 40.797619,149 C18.2657162,149 0,130.734284 0,108.202381 C0,97.7533704 0,51.2466296 0,40.797619 Z" id="Combined-Shape" stroke="#666666" stroke-width="5" stroke-linecap="square"></path>
                    <circle id="Oval" fill="#6BDDB3" cx="41" cy="36" r="5"></circle>
                </g>
                <path d="M197.492503,76.2960033 C197.492503,72.7317179 197.492503,67.3852897 197.492503,60.2567188 C197.822734,53.3607646 192.500163,48.0381939 185.934439,48.0381939 L165.377596,48.0381939 C158.746581,48.0381939 153.571859,42.8634723 153.571859,36.4801297 C153.571859,30.0967871 158.746581,24.9220655 165.129924,24.9220655 L173.386974,24.9220655 C181.750409,24.9233555 186.92513,19.7486339 186.92513,13.3652913 L186.92513,5.10824118" id="Line" stroke="#666666" stroke-width="5" stroke-linecap="square" transform="translate(175.539472, 40.702122) scale(-1, 1) rotate(-45.000000) translate(-175.539472, -40.702122) "></path>
            </g>
            <path d="M117,182.93122 L183.496737,116.434483" id="Line-2" stroke="#5BD49C" stroke-width="5" stroke-linecap="square"></path>
            <path d="M4,70.9312204 L70.4967374,4.43448305" id="Line-2-Copy" stroke="#5BD49C" stroke-width="5" stroke-linecap="square"></path>
        </g>
    </g>
</svg>