<?xml version="1.0" encoding="utf-8"?>
<!-- Generator: Adobe Illustrator 22.1.0, SVG Export Plug-In . SVG Version: 6.00 Build 0)  -->
<svg version="1.1" id="Layer_1" xmlns="http://www.w3.org/2000/svg" xmlns:xlink="http://www.w3.org/1999/xlink" x="0px" y="0px"
	 viewBox="0 0 150 150" style="enable-background:new 0 0 150 150;" xml:space="preserve">
<style type="text/css">
	.st0{fill:none;stroke:#444444;stroke-width:5;stroke-linecap:square;stroke-miterlimit:10;}
	.st1{fill:none;stroke:#5BD49C;stroke-width:5;stroke-linecap:square;stroke-miterlimit:10;}
</style>
<g id="icon">
	<path class="st0" d="M75.1,34.7c13.2,0,23.8,10.7,23.8,23.8c0,13.2-10.7,23.8-23.8,23.8c-13.2,0-23.8-10.7-23.8-23.8
		C51.3,45.3,62,34.7,75.1,34.7z"/>
	<path class="st0" d="M75.1,34.7c3.2,0,6.3,0.6,9.1,1.8V15.2L65.6,6.5v30.2C68.5,35.4,71.7,34.7,75.1,34.7z"/>
	<path class="st1" d="M84,58.5c0,4.9-4,8.9-8.9,8.9c-4.9,0-8.9-4-8.9-8.9c0-4.9,4-8.9,8.9-8.9C80,49.6,84,53.6,84,58.5z"/>
	<polyline class="st0" points="55.5,76.2 37.2,120.2 43.7,143.5 69.3,81.9 	"/>
	<polyline class="st0" points="94.5,76.2 112.8,120.2 106.3,143.5 80.7,81.9 	"/>
	<path class="st1" d="M64.1,128.7c0,0,11.2,5.6,22.1,0"/>
</g>
</svg>
