<svg width="189" height="191" xmlns="http://www.w3.org/2000/svg"><g fill="none" fill-rule="evenodd"><g transform="rotate(45 6.345 127.987)"><path d="M0 40.798C0 18.266 18.266 0 40.798 0 63.33 0 81.595 18.266 81.595 40.798v67.404C81.595 130.734 63.33 149 40.798 149 18.266 149 0 130.734 0 108.202V40.798z" stroke="#666" stroke-width="5" stroke-linecap="square"/><circle fill="#6BDDB3" cx="41" cy="36" r="5"/></g><path d="M121.848 60.348l11.341-11.342c4.643-5.11 12.17-5.11 16.813-.467l14.536 14.536c4.688 4.689 12.007 4.689 16.52.175 4.514-4.514 4.514-11.832 0-16.345l-5.838-5.839c-5.915-5.913-5.915-13.231-1.401-17.745l5.838-5.838" stroke="#666" stroke-width="5" stroke-linecap="square"/><path d="M117 182.931l66.497-66.497M4 70.931L70.497 4.434" stroke="#5BD49C" stroke-width="5" stroke-linecap="square"/></g></svg>