<?xml version="1.0" encoding="utf-8"?>
<!-- Generator: Adobe Illustrator 16.0.4, SVG Export Plug-In . SVG Version: 6.00 Build 0)  -->
<!DOCTYPE svg PUBLIC "-//W3C//DTD SVG 1.1//EN" "http://www.w3.org/Graphics/SVG/1.1/DTD/svg11.dtd">
<svg version="1.1" id="Layer_1" xmlns="http://www.w3.org/2000/svg" xmlns:xlink="http://www.w3.org/1999/xlink" x="0px" y="0px"
	 width="200px" height="200px" viewBox="0 0 200 200" enable-background="new 0 0 200 200" xml:space="preserve">
<rect x="-13" y="-79" display="none" fill="#F7F7F7" width="282" height="319"/>
<image display="none" overflow="visible" width="492" height="789" xlink:href="../../../../../Desktop/Screen Shot 2017-02-11 at 1.46.54 PM.png"  transform="matrix(1 0 0 1 -578 -499)">
</image>
<g>
	<path fill="none" stroke="#666666" stroke-width="5" stroke-linecap="square" stroke-miterlimit="10" d="M100.155,43.606
		c17.738,0,32.119,14.381,32.119,32.121c0,17.735-14.381,32.115-32.119,32.115c-17.737,0-32.118-14.38-32.118-32.115
		C68.038,57.987,82.418,43.606,100.155,43.606z"/>
	<path fill="none" stroke="#666666" stroke-width="5" stroke-linecap="square" stroke-miterlimit="10" d="M100.155,43.606
		c4.353,0,8.502,0.872,12.288,2.441V17.353L87.308,5.623v40.664C91.243,44.568,95.586,43.606,100.155,43.606z"/>
	<path fill="none" stroke="#5BD49C" stroke-width="5" stroke-linecap="square" stroke-miterlimit="10" d="M112.166,75.727
		c0,6.629-5.383,12.008-12.01,12.008c-6.626,0-12.01-5.379-12.01-12.008c0-6.633,5.383-12.012,12.01-12.012
		C106.782,63.715,112.166,69.093,112.166,75.727z"/>
	<polyline fill="none" stroke="#666666" stroke-width="5" stroke-linecap="square" stroke-miterlimit="10" points="73.687,99.598 
		49.083,158.999 57.852,190.377 92.264,107.292 	"/>
	<polyline fill="none" stroke="#666666" stroke-width="5" stroke-linecap="square" stroke-miterlimit="10" points="126.311,99.598 
		150.917,158.999 142.146,190.377 107.732,107.292 	"/>
	<path fill="none" stroke="#5BD49C" stroke-width="5" stroke-linecap="square" stroke-miterlimit="10" d="M85.284,170.402
		c0,0,15.081,7.541,29.745,0"/>
</g>
</svg>
