<svg xmlns="http://www.w3.org/2000/svg" viewBox="0 0 100 100"><title>icon-rocket</title><g id="icon-strategy"><circle cx="49.58" cy="23.33" r="5.96" style="fill:none;stroke:#1f7f5e;stroke-miterlimit:10;stroke-width:3px"/><line x1="43.63" y1="52.04" x2="43.63" y2="96.75" style="fill:none;stroke:#1f7f5e;stroke-miterlimit:10;stroke-width:3px"/><line x1="54.98" y1="54.11" x2="54.98" y2="83.69" style="fill:none;stroke:#1f7f5e;stroke-miterlimit:10;stroke-width:3px"/><path d="M55.49,52.56H43.11S20.93,12.83,49.3,3.75C76.54,12.83,55.49,52.56,55.49,52.56Z" style="fill:none;stroke:#1f7f5e;stroke-miterlimit:10;stroke-width:3px"/><path d="M59.4,43.48a78.65,78.65,0,0,1-3.91,9.08H55V67.31L70.87,43.48Z" style="fill:none;stroke:#1f7f5e;stroke-miterlimit:10;stroke-width:3px"/><path d="M43.11,52.56A77.71,77.71,0,0,1,39,43.48H27.74L43.63,67.31V52.56Z" style="fill:none;stroke:#1f7f5e;stroke-miterlimit:10;stroke-width:3px"/><line x1="17.03" y1="29.29" x2="17.03" y2="93.46" style="fill:none;stroke:#34d49d;stroke-miterlimit:10;stroke-width:3px"/><line x1="29.5" y1="67.82" x2="29.5" y2="88.64" style="fill:none;stroke:#34d49d;stroke-miterlimit:10;stroke-width:3px"/><line x1="69.1" y1="63.75" x2="69.1" y2="90.68" style="fill:none;stroke:#34d49d;stroke-miterlimit:10;stroke-width:3px"/><line x1="84.07" y1="36.49" x2="84.07" y2="80.64" style="fill:none;stroke:#34d49d;stroke-miterlimit:10;stroke-width:3px"/></g></svg>