<svg xmlns="http://www.w3.org/2000/svg" viewBox="0 0 75 75"><title>icon-rocket</title><g id="icon-strategy"><circle cx="37.33" cy="17.63" r="4.45" style="fill:none;stroke:#1f7f5e;stroke-miterlimit:10;stroke-width:3px"/><line x1="32.88" y1="39.09" x2="32.88" y2="72.5" style="fill:none;stroke:#1f7f5e;stroke-miterlimit:10;stroke-width:3px"/><line x1="41.36" y1="40.63" x2="41.36" y2="62.74" style="fill:none;stroke:#1f7f5e;stroke-miterlimit:10;stroke-width:3px"/><path d="M41.74,39.47H32.49S15.91,9.79,37.12,3C57.47,9.79,41.74,39.47,41.74,39.47Z" style="fill:none;stroke:#1f7f5e;stroke-miterlimit:10;stroke-width:3px"/><path d="M44.66,32.69a59.25,59.25,0,0,1-2.92,6.78h-.38v11L53.23,32.69Z" style="fill:none;stroke:#1f7f5e;stroke-miterlimit:10;stroke-width:3px"/><path d="M32.49,39.47a57.73,57.73,0,0,1-3.08-6.78H21L32.88,50.5v-11Z" style="fill:none;stroke:#1f7f5e;stroke-miterlimit:10;stroke-width:3px"/><line x1="13" y1="22.08" x2="13" y2="70.04" style="fill:none;stroke:#34d49d;stroke-miterlimit:10;stroke-width:3px"/><line x1="22.32" y1="50.88" x2="22.32" y2="66.44" style="fill:none;stroke:#34d49d;stroke-miterlimit:10;stroke-width:3px"/><line x1="51.91" y1="47.84" x2="51.91" y2="67.96" style="fill:none;stroke:#34d49d;stroke-miterlimit:10;stroke-width:3px"/><line x1="63.1" y1="27.46" x2="63.1" y2="60.46" style="fill:none;stroke:#34d49d;stroke-miterlimit:10;stroke-width:3px"/></g></svg>