<svg xmlns="http://www.w3.org/2000/svg" viewBox="0 0 80.88 148.56"><title>icon-design</title><g id="Layer_2" data-name="Layer 2"><g id="icon-design"><g id="icon-design-2" data-name="icon-design"><path d="M40.54,32.13a23.8,23.8,0,1,1-23.8,23.8A23.79,23.79,0,0,1,40.54,32.13Z" style="fill:none;stroke:#666;stroke-linecap:square;stroke-width:5px"/><path d="M40.54,32.13a23.09,23.09,0,0,1,9.1,1.8V12.63L31,3.93v30.2A23.1,23.1,0,0,1,40.54,32.13Z" style="fill:none;stroke:#666;stroke-linecap:square;stroke-width:5px"/><path d="M49.44,55.93a8.9,8.9,0,1,1-8.9-8.9A8.92,8.92,0,0,1,49.44,55.93Z" style="fill:none;stroke:#5bd49c;stroke-linecap:square;stroke-miterlimit:10;stroke-width:5px"/><polyline points="20.94 73.63 2.64 117.63 9.14 140.93 34.74 79.33" style="fill:none;stroke:#666;stroke-linecap:square;stroke-width:5px"/><polyline points="59.94 73.63 78.24 117.63 71.74 140.93 46.14 79.33" style="fill:none;stroke:#666;stroke-linecap:square;stroke-width:5px"/><path d="M29.54,126.13s11.2,5.6,22.1,0" style="fill:none;stroke:#5bd49c;stroke-linecap:square;stroke-miterlimit:10;stroke-width:5px"/></g></g></g></svg>