<svg xmlns="http://www.w3.org/2000/svg" viewBox="0 0 1075 1410.78"><title>logo</title><g id="Layer_2" data-name="Layer 2"><g id="Layer_4" data-name="Layer 4"><path d="M346.53,491.39A153.56,153.56,0,0,0,460.59,776.54l181.67-72.67a78.56,78.56,0,0,1,58.36,145.88L75,1100V280.78l425-170V260.39l75-30V0L0,230v980.78L728.47,919.39A153.56,153.56,0,1,0,614.41,634.24L432.74,706.91A78.56,78.56,0,0,1,374.38,561L1000,310.78V1130L575,1300V1139.19l-40.5,16.2L500,1168.33v242.45l575-230V200Z" style="fill:#34d49d"/></g></g></svg>