<?xml version="1.0" encoding="utf-8"?>
<!-- Generator: Adobe Illustrator 23.0.1, SVG Export Plug-In . SVG Version: 6.00 Build 0)  -->
<svg version="1.1" xmlns="http://www.w3.org/2000/svg" xmlns:xlink="http://www.w3.org/1999/xlink" x="0px" y="0px"
	 viewBox="0 0 150 150" style="enable-background:new 0 0 150 150;" xml:space="preserve">
<style type="text/css">
	.st0{fill:none;stroke:#666666;stroke-width:5;stroke-linecap:square;}
	.st1{fill:none;stroke:#5BD49C;stroke-width:5;stroke-linecap:square;}
	.st2{fill-rule:evenodd;clip-rule:evenodd;fill:#6BDDB3;}
	.st3{fill:none;stroke:#5BD49C;stroke-width:5;stroke-linecap:square;stroke-miterlimit:10;}
</style>
<g id="icon-writing">
</g>
<g id="icon-coding">
	<g id="icon-coding_1_">
		<g>
			<g transform="rotate(45 6.345 127.987)">
				<path class="st0" d="M-16.4,41.1c0-17.3,14-31.3,31.3-31.3s31.3,14,31.3,31.3v51.7c0,17.3-14,31.3-31.3,31.3s-31.3-14-31.3-31.3
					V41.1z"/>
				<circle class="st2" cx="15.1" cy="37.5" r="3.8"/>
			</g>
			<path class="st0" d="M96.4,49.4l8.7-8.7c3.6-3.9,9.3-3.9,12.9-0.4l11.1,11.1c3.6,3.6,9.2,3.6,12.7,0.1c3.5-3.5,3.5-9.1,0-12.5
				l-4.5-4.5c-4.5-4.5-4.5-10.1-1.1-13.6l4.5-4.5"/>
			<path class="st1" d="M92.7,143.3l51-51 M6.1,57.5l51-51"/>
		</g>
	</g>
</g>
<g id="icon-design">
</g>
</svg>
