<svg id="topo" xmlns="http://www.w3.org/2000/svg" viewBox="0 0 1920 800"><title>topo-map</title><path d="M926.1,316.69c-15.08,27-27.24,59-17.41,88.31,8.46,25.24,31.24,42.55,53.31,57.43,29,19.59,60.22,38.23,95,42.62,45.19,5.72,92.62-13.2,135.78,1.36,27.87,9.39,49.32,31.34,73.52,48.07s56.47,28.45,82.53,14.81c13.4-7,22.83-19.63,31.52-32,12.33-17.59,24.3-35.95,30-56.66,8.4-30.4,2.43-63.39-10.58-92.12s-32.65-53.91-52.59-78.35c-21.36-26.16-43.89-52.36-73-69.39-40.07-23.4-88.55-27.12-134.93-25.54-24,.82-48,3-72,3.94-19.09.75-47.08-5.53-64.85,2.07C970.79,234.72,941.89,288.43,926.1,316.69Z" style="fill:none;stroke:#d8d8d8;stroke-miterlimit:10;stroke-width:2px"/><path d="M1085.71,242c19.49-.36,38.91-2.39,58.39-3,37.58-1.09,76.83,2.15,109.26,21.21,23.62,13.88,41.88,35.13,59.13,56.39,16.11,19.86,32,40.29,42.34,63.68,10.53,23.84,14.78,51,7.45,76-5,17-15,32.1-25.33,46.54-7.28,10.18-15.16,20.55-26.25,26.39C1300,535,1288,535.55,1276.18,533c-12-2.57-23.78-8.35-33.93-15.19-20.15-13.6-38.09-31.59-61.19-39.34-31.8-10.64-66.35.18-99.93-.23a127,127,0,0,1-13.09-.81c-28.94-3.4-55-18.28-79.34-34.33-18.28-12.13-37-26.32-44.09-46.91-8.35-24,1.17-50.28,13.33-72.5,12.74-23.4,36.38-67.27,62.78-78.2,4.19-1.74,9.73-2,14.81-2.44,8.93-.79,18.79-1,28.08-1C1071.38,242.07,1079,242.17,1085.71,242Z" style="fill:none;stroke:#d8d8d8;stroke-miterlimit:10;stroke-width:2px"/><path d="M1104.23,264.93q22.37-1.51,44.76-2c28.8-.6,58.81,2.16,83.6,16.87,18.07,10.73,32.06,27.05,45.21,43.41,12.28,15.27,24.42,31,32.08,49,8,18.95,10.58,40.36,4.33,60-4.22,13.31-12.33,25.13-20.62,36.42-5.88,8-12.22,16.11-21,20.77-8.48,4.5-17.92,5.14-27.31,3.31s-18.91-6.24-27-11.52c-16.11-10.48-30.53-24.51-48.86-30.6-25.42-8.42-53-.08-79.81-.2-3.5,0-7-.18-10.46-.54-23.12-2.4-44.18-13.46-63.71-26-14.5-9.34-29.06-20.46-34.86-36.37-6.83-18.72.05-39.23,9.24-56.7,9.75-18.51,28.11-52.48,49.33-60.94,4-1.6,10.11-1.07,15-1.48,9-.74,18.89-1.84,28.06-2.48C1089.74,265.29,1097.31,265.4,1104.23,264.93Z" style="fill:none;stroke:#d8d8d8;stroke-miterlimit:10;stroke-width:2px"/><path d="M1122.76,287.82c10.36-.78,20.76-.95,31.13-1,20-.12,40.78,2.16,57.94,12.53,12.52,7.58,22.24,19,31.28,30.41,8.45,10.7,16.82,21.68,21.83,34.34,5.56,14.06,6.37,29.67,1.2,43.87-3.47,9.61-9.64,18.16-15.92,26.3-4.47,5.78-9.27,11.66-15.73,15.15-6.24,3.36-13.17,4.06-20.1,2.94a56.75,56.75,0,0,1-20.18-7.86c-12.06-7.35-23-17.42-36.53-21.85-19-6.19-39.66-.34-59.69-.17-2.61,0-5.22-.06-7.82-.27-17.31-1.41-33.31-8.68-48.08-17.75-10.71-6.58-21.18-14.58-25.64-25.83-5.33-13.43-1.1-28.19,5.16-40.89,6.72-13.65,19.87-37.62,35.86-43.7,3.85-1.46,10.49-.14,15.1-.51,9-.7,19-2.67,28-3.95C1108.11,288.52,1115.64,288.35,1122.76,287.82Z" style="fill:none;stroke:#d8d8d8;stroke-miterlimit:10;stroke-width:2px"/><path d="M1141.28,310.71c5.84-.38,11.69-.23,17.5,0,11.23.37,22.76,2.17,32.28,8.2,7,4.43,12.43,10.86,17.37,17.41,4.61,6.12,9.16,12.41,11.57,19.67a37.67,37.67,0,0,1-1.93,27.79c-2.73,5.9-7,11.19-11.21,16.18-3.06,3.58-6.32,7.22-10.47,9.52a22.17,22.17,0,0,1-12.9,2.59,35.81,35.81,0,0,1-13.3-4.2c-8-4.21-15.41-10.34-24.2-13.11-12.67-4-26.31-.6-39.57-.14-1.73.06-3.46.07-5.19,0a72.29,72.29,0,0,1-32.45-9.47c-6.9-3.82-13.3-8.71-16.41-15.3-3.85-8.13-2.25-17.16,1.08-25.08,3.68-8.79,11.67-22.65,22.4-26.44,3.68-1.3,10.87.77,15.24.45,9.1-.65,19.09-3.49,28-5.42A151.84,151.84,0,0,1,1141.28,310.71Z" style="fill:none;stroke:#d8d8d8;stroke-miterlimit:10;stroke-width:2px"/><path d="M1137.59,337.1c7.25-2.13,14.73-4.53,22.22-3.51s15,6.68,15.24,14.23c.27,7.33-5.9,13.09-11.56,17.77-3.25,2.69-6.73,5.48-10.9,6.11-6.31,1-12.13-3.21-18.29-4.9s-13-.87-19.45-.11-13.24,1.35-19.37-.9c-13-4.76-14-19.38-1.25-23.22,3.54-1.07,11.25,1.69,15.38,1.41C1118.77,343.38,1128.8,339.67,1137.59,337.1Z" style="fill:none;stroke:#d8d8d8;stroke-miterlimit:10;stroke-width:2px"/><path d="M688.74,306.41c5.79-2.8,12.76-1.93,18.72.48a39.61,39.61,0,1,1-34.21,71.27c-21.06-11.81-12.16-23-3.36-37C676.74,330.21,675.53,312.8,688.74,306.41Z" style="fill:none;stroke:#d8d8d8;stroke-miterlimit:10;stroke-width:2px"/><path d="M698.67,282a58.22,58.22,0,0,1,38.23,10.91c7.3,5.3,13.35,12.24,18.91,19.33,3.15,4,6.27,8.28,7.46,13.31,1.1,4.66.27,9.43-.38,14.1-1.51,10.73-2.85,21.26-9.6,29.62s-14.22,17.26-22.79,24.32c-9.28,7.65-19.82,13.79-31.59,16s-24.74-.37-33.95-7.86c-16.21-13.16-14.67-28.81-16-42.6-.64-6.8-2.79-12.91-1.18-20.3,2.79-12.79,5.39-28.9,16.19-39.24C673.75,290.25,685.24,283.05,698.67,282Z" style="fill:none;stroke:#d8d8d8;stroke-miterlimit:10;stroke-width:2px"/><path d="M689.88,257.14a84.25,84.25,0,0,1,61.79,11.32c12,7.62,21.89,18.16,31.34,28.74,5.36,6,10.82,12.41,12.62,20.31,1.66,7.32-.24,14.81-1.9,22.05-3.32,14.51-5,28.49-15.58,38.81s-20.43,22-31.43,32.08c-12.48,11.4-26.47,21.53-42.81,25.64s-35.22.84-47.25-10.82c-18.51-17.95-14.6-42-20.92-61.15-3.15-9.51-9.87-17.12-10-27.65-.13-14,3.94-31.39,13.54-43.75C652.4,275.85,669,261.54,689.88,257.14Z" style="fill:none;stroke:#d8d8d8;stroke-miterlimit:10;stroke-width:2px"/><path d="M681.09,232.27A111.15,111.15,0,0,1,766.45,244c16.65,9.94,30.42,24.07,43.76,38.14,7.56,8,15.38,16.53,17.77,27.3,2.23,10-.7,20.22-3.4,30-5.06,18.32-7.1,35.71-21.57,48-14.15,12-26.61,26.8-40.06,39.83-15.67,15.18-33.13,29.27-54.05,35.31s-45.79,2.15-60.53-13.77c-21-22.63-14.6-55.22-25.91-79.71-5.67-12.2-16.48-21.39-18.74-35-2.54-15.28,2-34.09,10.87-48.27C630.16,260.92,652.72,240,681.09,232.27Z" style="fill:none;stroke:#d8d8d8;stroke-miterlimit:10;stroke-width:2px"/><path d="M672.3,207.39a138.8,138.8,0,0,1,108.93,12.14c21.33,12.27,38.95,30,56.18,47.54,9.77,9.95,19.93,20.67,22.93,34.31,2.78,12.64-1.14,25.63-4.92,38-6.77,22.14-9.2,43-27.55,57.18-17.78,13.84-32.77,31.61-48.7,47.59-18.83,19-39.78,37-65.27,45s-56.42,3.49-73.82-16.73c-23.47-27.28-14.55-68.42-30.89-98.26-8.18-14.91-22.83-25.82-27.53-42.32-4.77-16.77-.11-36.73,8.22-52.79C607.16,245.71,636.45,218.49,672.3,207.39Z" style="fill:none;stroke:#d8d8d8;stroke-miterlimit:10;stroke-width:2px"/><path d="M886.27,339.26c4.86-14.89,9.77-30.65,6.43-45.95-3.61-16.5-16.12-29.38-28.08-41.3C843.49,231,822,209.66,796,195.07a164.36,164.36,0,0,0-230.84,77.11c-7.93,18-12.52,38.88-5.55,57.3,7.29,19.26,25.62,32,36.31,49.65,21.38,35.2,9.85,84.9,35.87,116.82,20,24.53,57,29.61,87.11,19.69s54.47-31.93,76.49-54.67c18.37-19,35.89-39.72,57.35-55.34C874.93,389.46,877.79,365.24,886.27,339.26Z" style="fill:none;stroke:#d8d8d8;stroke-miterlimit:10;stroke-width:2px"/><path d="M743.09,536.54c-23.91,9.22-50.64,13.1-70.78,29-18.95,14.93-29.21,38.53-34.06,62.16-13.42,65.34,14.32,139.69,72.3,172.66C752,823.88,802,824.87,848,837.28c45.37,12.24,91.7,36.1,136.87,23.15,21.87-6.28,40.51-20.68,61.79-28.74,40.51-15.34,88.39-7,126.09-28.33,28.35-16.05,45.52-45.93,61.35-74.41,7.2-13,14.48-26.14,18-40.56s2.67-30.51-5.45-42.93c-5.54-8.46-14.32-15.12-17-24.88-2.89-10.5,2.12-21.4,2.94-32.26,1.59-20.76-13-40.33-31.56-49.7s-40.36-10.17-61.06-8-41.07,7.13-61.84,8.56c-62.88,4.34-127-26.34-163.16-78-5.7-8.16-10.84-16.91-18.34-23.45-29.72-25.94-52.29,20.85-70.46,39.58C802.3,501.84,775.29,524.12,743.09,536.54Z" style="fill:none;stroke:#d8d8d8;stroke-miterlimit:10;stroke-width:2px"/><path d="M914.18,495.68c29.6,41.13,83.19,65,135.63,61.56,17.2-1.14,34.08-5,51.18-6.64s35.1-.77,50.39,7.11c15.67,8.08,27.94,24.6,26.92,42.17-.53,9.18-4.54,18.44-2.35,27.34,2,8.27,8.7,14.1,12.92,21.13,6.12,10.22,6.72,23.12,3.72,34.78s-9.06,22.27-15.07,32.72c-13.19,22.94-27.5,46.93-50.73,59.91-21,11.73-45.78,12.5-69.84,15.84-11.32,1.57-22.47,3.7-33,7.8-17.3,6.71-32.46,18.54-50.18,23.88-36.61,11-73.92-8.18-111-16.64-19.38-4.41-40.27-6.61-60.31-10.93-20.3-4.37-39.77-10.53-57.51-21-47.06-27.89-70.31-88.33-59.36-142,4.11-20.4,13.81-40.21,30.29-52.73s38.2-16,57.7-23.41c26.26-10,48.36-27.91,67.87-47.6,15-15.05,33.47-52.49,57.69-31.89C905.22,482.24,909.49,489.19,914.18,495.68Z" style="fill:none;stroke:#d8d8d8;stroke-miterlimit:10;stroke-width:2px"/><path d="M913.47,530.17c23.19,30.52,66.1,47.66,108.1,45.11,13.64-.84,27-3.69,40.52-4.72s27.73-.14,39.72,6.25c12.75,6.79,22.74,20.25,22.28,34.62-.24,7.52-3.24,15.14-1.76,22.43,1.38,6.78,5.93,11.76,8.82,17.37,4.12,8,4.54,17.75,2,26.63s-7.38,17-12.2,24.89c-10.56,17.4-22,35.51-40.12,45.4-16.38,9-35.56,9.72-54.14,12.55-8.74,1.34-17.34,3.13-25.46,6.4-13.32,5.37-25,14.63-38.57,19-28.06,9.1-56.43-5.34-85.22-10.14-16-2.66-33.86-3.71-50.66-7.65-17-4-32.91-10.15-47.53-19.33-36.18-22.72-54.8-69.32-46.44-111.39,3.41-17.14,12.49-33.18,26.52-43.3,13-9.38,29.55-12.19,44.64-17.85,20.31-7.62,37.45-21.19,52.74-36,11.79-11.41,26.19-39.47,44.91-24.19C906.4,520.2,909.8,525.34,913.47,530.17Z" style="fill:none;stroke:#d8d8d8;stroke-miterlimit:10;stroke-width:2px"/><path d="M912.75,564.66c16.73,19.94,49,30.31,80.59,28.67,10.07-.55,20-2.35,29.85-2.81s20.35.5,29,5.39c9.82,5.51,17.54,15.9,17.64,27.08,0,5.84-1.94,11.82-1.17,17.51.72,5.29,3.14,9.37,4.72,13.62a27.86,27.86,0,0,1,.3,18.48c-2.06,6.11-5.7,11.65-9.33,17-7.92,11.87-16.5,24.08-29.5,30.89-11.76,6.17-25.36,6.93-38.46,9.27a80.35,80.35,0,0,0-17.89,5c-9.35,4-17.53,10.71-27,14.19-19.5,7.16-39.11-2.24-59.39-3.63-12.69-.88-27.46-.81-41-4.39a120.37,120.37,0,0,1-37.56-17.61c-25.36-17.39-39.37-50.32-33.5-80.75a53.06,53.06,0,0,1,22.75-33.87c9.39-6.22,20.89-8.42,31.56-12.3C848.78,591.22,861,582,872,572.1c8.62-7.76,18.93-26.46,32.14-16.5C907.57,558.16,910.1,561.5,912.75,564.66Z" style="fill:none;stroke:#d8d8d8;stroke-miterlimit:10;stroke-width:2px"/><path d="M912,599.16c10.24,9.35,31.92,13,53.06,12.21,6.5-.26,12.9-1,19.2-.89s13,1.17,18.38,4.52c6.88,4.26,12.33,11.55,13,19.55.34,4.17-.65,8.5-.58,12.6.07,3.8.9,6.84.62,9.85.87,3.2.18,7-1.42,10.33a44.84,44.84,0,0,1-6.45,9.23c-5.3,6.31-11,12.65-18.88,16.38-7.13,3.37-15.15,4.14-22.77,6a48.13,48.13,0,0,0-10.34,3.59c-5.36,2.69-10.06,6.81-15.36,9.34-10.94,5.24-22,1.54-33.57,2.88-9.62,1.11-21,2.09-31.36-1.12s-19.22-9.21-27.59-15.9c-14.7-11.75-24-31.32-20.57-50.1,1.94-10.67,9.7-19.22,19-24.44,5.66-3.19,12.24-4.64,18.49-6.75,8.42-2.83,15.74-7.66,22.48-12.73,5.45-4.1,11.7-13.44,19.37-8.81A33.87,33.87,0,0,1,912,599.16Z" style="fill:none;stroke:#d8d8d8;stroke-miterlimit:10;stroke-width:2px"/><path d="M911.32,633.65c5.68-1.65,30.07-8.92,41.79.45,3.87,3.1,7.12,7.2,8.35,12s.14,10.36-3.46,13.77c-5.76,5.45-15.35,3.94-22.06,8.14-6.11,3.82-8.65,11.58-14.28,16.07-6,4.75-14.64,5-21.72,2.16s-12.78-8.3-17.62-14.19c-4.56-5.55-8.71-12.35-7.64-19.46,1.13-7.45,7.94-13,15.21-15S905.64,635.3,911.32,633.65Z" style="fill:none;stroke:#d8d8d8;stroke-miterlimit:10;stroke-width:2px"/><path d="M634.55,570c3.32-4.86,7.07-9.91,7.37-15.79.35-7-4.31-13.24-9.78-17.54S620.25,529.4,614.82,525c-12.53-10-18.35-26.25-21.51-42s-4.32-32.05-10.2-47c-2.81-7.14-7-14.16-13.54-18.08-10.79-6.44-25-2.7-35.39,4.42-19.33,13.27-30.1,38-26.62,61.21,4,26.75,24.47,48,33,73.69,6,17.81,5.95,37,8.94,55.52,8,49.6,37,92.91,65.23,134.45,3.56,5.24,8.91,11.18,15,9.41,4-1.17,6.39-5.56,6.57-9.74s-1.37-8.21-2.9-12.11c-11.08-28.34-25.59-55.2-24.47-86.22C610,621,618.55,592.67,634.55,570Z" style="fill:none;stroke:#d8d8d8;stroke-miterlimit:10;stroke-width:2px"/><path d="M574.93,478.57c-2.9-5.41-7.19-9.27-11.84-10.94-8.08-2.9-16.5,1.87-18.14,11.72-6,6.37-8.7,16.41-6.49,25.84,2.54,10.86,10.61,19.86,15.13,30.08,3.67,8.29,5.74,16.93,8.1,25.68,1.08,4,2.26,8.07,3.45,12.11a169.43,169.43,0,0,0,7.06,20.82c2.93,6.69,7,13.27,11.95,18.13a51.64,51.64,0,0,0,11.36,8.18c1.92,1.07,4.29,2.26,6.75.78a6.56,6.56,0,0,0,2.81-5.08,12.83,12.83,0,0,0-.87-4.73c-3.51-11.11-8.59-21.73-8.66-33.71-.07-10.7,3.55-21,7-30.61a19.69,19.69,0,0,0,.92-9.14c-.48-3.84-2.63-7.46-5.06-10.42s-5-5.57-7.58-8.46c-4.7-5.37-7.57-12.45-9.48-19.49S578.37,485,574.93,478.57Z" style="fill:none;stroke:#d8d8d8;stroke-miterlimit:10;stroke-width:2px"/><path d="M550.34,507.82c1.51,6.25,5.67,11.47,9.74,16.44s8.28,10.14,9.91,16.36c.89,3.41,1,7,1.93,10.39s3.13,6.77,6.52,7.74c5,1.44,10.06-3.28,11-8.39s-1-10.27-2.9-15.1l-7.7-19.55c-2.18-5.53-4.4-11.14-8-15.89C561.51,487.48,546.13,490.52,550.34,507.82Z" style="fill:none;stroke:#d8d8d8;stroke-miterlimit:10;stroke-width:2px"/><path d="M462.09,453.41c-2.52,16.72,4.29,33.3,11,48.85Q492.61,548,512.2,593.7c11.44,26.71,22.55,58.82,6.8,83.24-11.2,17.39-33.87,25-54.4,22.4s-39-13.89-54.64-27.46-28.92-29.56-43.76-44c-30.68-29.8-68.76-54-88.36-92-12.47-24.18-16.19-51.78-19.72-78.76-2.57-19.64-5-40.41,2.92-58.56,9.89-22.68,33.59-35.92,56.73-44.69A311.12,311.12,0,0,1,521,348.54c19,6.09-14.87,43.76-22.41,51.63C483.82,415.62,465.47,431,462.09,453.41Z" style="fill:none;stroke:#d8d8d8;stroke-miterlimit:10;stroke-width:2px"/><path d="M440.8,468c-1.76,11.55,2.66,23,6.94,33.73q12.6,31.56,24.83,62.92c7.15,18.31,14,40.15,2.91,56.73-7.92,11.81-23.49,17-37.65,15.38s-26.76-9.47-37.89-18.33c-12.32-9.8-22.41-21.54-33-32.77-7.7-8.17-15.92-15.95-24.15-23.73-15.66-14.79-30.51-28.15-41-46.7-10.65-18.85-14.9-40.85-17.39-62.45-1.82-15.72-2.62-32.13,4.43-46.49,8.32-17,26.48-27.07,44.37-33a168.07,168.07,0,0,1,24.33-6.08,110,110,0,0,1,16.31-1.33c5.07-.13,9.87-.15,14.83.06,17.76.79,37.62,4.55,57.64,10.33a278.07,278.07,0,0,1,29.08,10.06c9.51,3.93,2.74,17.66-3.89,28.26-3.1,5-6.08,9.29-7.51,11.49C455.73,438.8,443.47,450.85,440.8,468Z" style="fill:none;stroke:#d8d8d8;stroke-miterlimit:10;stroke-width:2px"/><path d="M419.5,482.56c-1,6.36,1,12.67,2.94,18.61,3.75,11.6,7.23,23.1,10.51,34.4,2.85,9.91,5.45,21.46-1,30.21-4.62,6.23-13.1,9.08-20.9,8.37s-14.64-4.92-21.14-9.21c-9.13-6-15.9-13.51-22.29-21.57-4.64-5.87-9.37-11.7-14.39-17.33-10.07-11.3-19.34-19.1-27.51-31.55-8.87-13.5-13.61-29.92-15.06-46.14-1.07-11.8-.3-23.86,5.93-34.43,6.67-11.3,19.37-18.21,32-21.31a76.57,76.57,0,0,1,17.08-2.13,20.83,20.83,0,0,1,9.51,2.38,68.42,68.42,0,0,1,6.11,3.38c7.28,4.4,18.34,10.91,30.43,17.58,5.87,3.24,12,6.57,18,10.26s4.1,12.39,1.92,19.56c-1,3.3-1.88,6.32-2.3,8.31C427.35,461.38,421.41,470.7,419.5,482.56Z" style="fill:none;stroke:#d8d8d8;stroke-miterlimit:10;stroke-width:2px"/><path d="M344.37,421.58c7-8.34,19.5-12.19,29.48-7.8,2.25.86,3.12,3.7,2.72,6.07s-1.71,4.48-2.61,6.71c-3.21,8-.93,17.26,3.21,24.82s10,14,14.64,21.32,8,16,6.4,24.43-9.86,16-18.32,14.35c-11.22-2.21-11.75-13.23-16.18-21.3s-8.3-10-14.06-16.41C337.17,459.84,331.09,437.36,344.37,421.58Z" style="fill:none;stroke:#d8d8d8;stroke-miterlimit:10;stroke-width:2px"/><path d="M376.44,308.7c-40.29,6.79-80.13,20.47-112.64,45.21-24.69,18.79-47.19,44.73-78,48.14-31.91,3.52-61.9-20-76-48.84s-15.65-62-16.46-94.09c-.56-22.79-.82-46.05,5.94-67.83,7.08-22.79,21.49-42.67,37.89-60A284.3,284.3,0,0,1,241,61.6c47-18.12,97.78-23.42,148-26.22,64.11-3.57,129.21-3.25,191.44,12.52,27.16,6.89,56.66,19.58,66.44,45.84,8.74,23.5-1.94,50.41-18.79,69S589,193.8,568.67,208.53,529,241.79,522.51,266c-8.74,32.76-18.29,35.25-50.18,35.65C440.28,302.06,408.1,303.37,376.44,308.7Z" style="fill:none;stroke:#d8d8d8;stroke-miterlimit:10;stroke-width:2px"/><path d="M380.05,264.63c-18.21,4-34.28,12-50.51,21a312.17,312.17,0,0,0-32,20.21c-12.42,9-24.58,19.53-37.9,26.4a62.58,62.58,0,0,1-24.21,7.34c-24.85,1.87-48.46-15.27-60-37.29-10.84-20.61-12.59-44.63-13.51-67.93-.67-16.57-.87-33.49,3.88-49.36,5-16.62,15.15-31.23,27-44,21-22.65,47.6-39.91,76.46-51.08q4.65-1.8,9.35-3.39c31.4-10.64,65.2-15.3,98.82-18.4,47-4.29,95-5.65,140.45,5.67,19.92,5,40.93,14.41,49.29,33.3,8.26,18.64,1.72,41.49-12.41,56.53-11.86,12.63-27.1,21.43-41.19,31.51S485.81,217.84,481,234.24c-6.47,22-13.27,23.92-35.05,24.43C423.86,259.27,401.6,259.87,380.05,264.63Z" style="fill:none;stroke:#d8d8d8;stroke-miterlimit:10;stroke-width:2px"/><path d="M383.66,220.57c-12.4,4.12-20.47,13.42-30.59,21.5-6.79,5.45-14.29,10.64-21.87,15.73-9.11,6.12-18.59,12.22-28.57,15.86A52.57,52.57,0,0,1,285,277.14c-17.8.2-34.94-10.56-44.08-25.75-7.47-12.42-9.51-27.26-10.56-41.78-.76-10.34-.91-20.92,1.83-30.88,2.87-10.45,8.8-19.79,16.08-27.9,13.19-14.76,30.58-25.28,49.08-32.5,2-.77,4-1.5,6-2.21,19.47-6.78,40.85-11.49,62.35-15.14,29.94-5,60.75-8,89.47-1.19,12.67,3,25.45,9.19,32.14,20.76,8,13.78,5.4,32.59-6.05,44.1-6.75,6.79-15.06,11.76-22.94,17.21s-15.65,12-18.83,20.61c-4.18,11.27-8.26,12.51-19.92,13.2C407.43,216.39,395.09,216.76,383.66,220.57Z" style="fill:none;stroke:#d8d8d8;stroke-miterlimit:10;stroke-width:2px"/><path d="M328.15,145.67c-9,3.51-18.41,7.33-24.33,14.94-8.87,11.38-6.81,29,2.67,39.86s24.76,15.51,39.17,14.6c12.18-.77,25-5.91,30.94-16.56,4-7.18,4.7-16.36,10.67-22,5.66-5.36,14.51-5.95,20.55-10.88,9.2-7.52,8-23.19-.33-31.67C385.84,111.91,350.68,136.88,328.15,145.67Z" style="fill:none;stroke:#d8d8d8;stroke-miterlimit:10;stroke-width:2px"/><path d="M662.55,35.22c1.6,21.41,25,36.79,25.45,58.26.21,9.08-3.84,18.11-2.21,27.05,2.31,12.74,15.64,20.89,28.51,22.43s25.74-1.81,38.6-3.35c40.59-4.87,83,9.16,112.73,37.26,17.1,16.19,33.6,38.35,57.15,37.92,19.85-.36,34.93-17,52-27.15,33.87-20.19,76.26-14.77,115.69-14.79,19.57,0,40.58-2.08,55.58-14.64,17.84-14.92,22.29-41.4,17-64s-18.69-42.43-31.8-61.64c-15.92-23.32-33.51-48-60-57.74-17-6.24-35.6-5.54-53.67-4.74L840.21-22.19c-41.77,1.83-87-1.49-127.4,10.63C689.15-4.47,662.55,6.31,662.55,35.22Z" style="fill:none;stroke:#d8d8d8;stroke-miterlimit:10;stroke-width:2px"/><path d="M760.38,7.59c-16.77,5-35.51,12.56-36.42,32.33.26,14.72,15.39,25.52,14.85,40.52-.24,6.67-3.43,13.44-2.51,20.19,1.31,9.65,10.42,16.15,19.75,18.17,9.69,2.09,20,.17,30.22-1.13q2.84-.36,5.66-.63c12.05-1.15,24.17-.9,35.94,1.91,17.75,4.24,33.91,14.11,47.57,26.13,13.19,11.6,26,26.88,43.58,26.67,14.81-.17,26.48-11.42,39.44-18.51,12.27-6.72,25.83-9.67,39.79-11,15.29-1.52,31.14-1.18,46.31-2,14.43-.8,29.69-3.14,40.71-12.74,12.93-11.18,16.61-30.39,13.32-47.08s-12.44-31.59-22.07-45.79c-12-17.67-26.12-35-46.36-41.67-12.88-4.26-26.93-3.59-40.48-2.68l-4,.28c-43.09,3-86.29,5.34-129.43,7.75C824.72,0,790.93-1.56,760.38,7.59Z" style="fill:none;stroke:#d8d8d8;stroke-miterlimit:10;stroke-width:2px"/><path d="M808,26.74c-9.88,3-20.76,7.26-22.58,17.89-1.07,8,5.68,14.28,4.24,22.78-.73,4.29-3,8.77-2.79,13.32.31,6.55,5.2,11.5,11,13.91,6.53,2.72,14.27,2.14,21.83,1.09l4.15-.59c8.79-1.3,17.58-2.44,26.32-.8,13.17,2.46,24.57,10.83,35.15,18.94,9.22,7.07,18.34,15.42,30,15.44,9.77,0,18-5.86,26.89-9.87,8.36-3.8,17.33-5.9,26.41-7.31,10-1.57,20.33-2.36,30.1-4,9.28-1.59,18.79-4.23,25.85-10.83,8-7.48,10.93-19.4,9.66-30.12S1028,45.8,1021.84,36.61c-8-12-18.72-22.07-32.71-25.61-8.79-2.26-18.27-1.63-27.3-.6l-2.66.31c-28.83,3.59-57.89,5.67-86.85,8C851,20.42,828.59,20.57,808,26.74Z" style="fill:none;stroke:#d8d8d8;stroke-miterlimit:10;stroke-width:2px"/><path d="M855.53,45.89c-5.62,1.67-11.36,4-15.11,8.49s-4.79,11.74-.87,16.1,10.54,4.2,16.08,2.75,11-4,16.7-3.5c8.6.68,15.09,7.76,22.73,11.76,13.31,7,29.61,4.28,43.83-.6,9.27-3.18,18.59-7.46,24.87-15s8.7-19,3.4-27.26c-6.84-10.64-22.34-11.16-34.51-7.72C907.1,38.15,880.54,38.44,855.53,45.89Z" style="fill:none;stroke:#d8d8d8;stroke-miterlimit:10;stroke-width:2px"/><path d="M1222.66,188.63c-9.81-2.8-20.62-6.37-25.48-15.34-4.69-8.66-2.14-19.24-.58-29a128.86,128.86,0,0,0-5.73-63c-4.46-12.6-10.7-27.34-3.1-38.33,4.84-7,14.25-9.77,22.64-8.46,15.42,2.4,26.37,15.83,35.76,28.3,26.94,35.77,54.2,72.09,70.82,113.67,3.27,8.17,6.12,17.32,3.15,25.6C1311.52,226.12,1239.87,193.53,1222.66,188.63Z" style="fill:none;stroke:#d8d8d8;stroke-miterlimit:10;stroke-width:2px"/><path d="M1206.68,95a102.32,102.32,0,0,1,3.64,45.32c-1,7-2.61,14.52.63,20.8,3.48,6.74,11.12,9.75,18.16,12.33,4.16,1.52,11.91,4.83,21,7.84,20.2,6.68,45.85,11.74,50.13-1.24,2-6,.12-12.64-2.15-18.59-6.47-16.89-15.72-32.6-26.14-47.42-8.25-11.73-17.21-22.94-26.18-34-6.3-7.77-13.43-16-22.75-19.13a23.29,23.29,0,0,0-3.55-.6c-6-.52-12.42,1.82-15.69,7-5.15,8.12-.68,18.79,3,27.61" style="fill:none;stroke:#d8d8d8;stroke-miterlimit:10;stroke-width:2px"/><path d="M1222.49,108.72a82.46,82.46,0,0,1,1.55,27.61c-.45,4.25-1.12,8.76.68,12.64,2.09,4.52,6.56,7.05,10.84,9.32a73.53,73.53,0,0,0,13.56,5.6c13,3.77,28.52,3.57,31.13-5.84,1-3.81.11-7.86-1.17-11.59-3.65-10.57-9.56-20.4-16.39-29.29a246.07,246.07,0,0,0-17.43-19.91c-4.23-4.44-8.92-9.07-14.7-11.13a13.63,13.63,0,0,0-2.12,0,10.66,10.66,0,0,0-8.76,5.48c-2.68,5.24,0,11.83,2.86,16.88" style="fill:none;stroke:#d8d8d8;stroke-miterlimit:10;stroke-width:2px"/><path d="M1238.3,122.43c-.56,4.79-1.1,9.73.19,14.38s4.9,9,9.69,9.67c5.88.81,11.41-4.55,12.12-10.45s-2.42-11.74-6.81-15.74-9.92-6.51-15.34-8.94c-3.49,2.39-3.37,8.47.22,10.71" style="fill:none;stroke:#d8d8d8;stroke-miterlimit:10;stroke-width:2px"/><path d="M1324.91,110.23c19.75,25.32,45.51,52.19,40.93,84-2.94,20.32-18.43,39.24-13.72,59.22,3.88,16.51,20,26.55,33.16,37.19A156.1,156.1,0,0,1,1441,387.29c2.91,18.8,3.7,40.74,19,52.11,13.65,10.17,33.92,6.54,47.33-3.94s21.43-26.26,28.6-41.69c22-47.46,40.14-97.43,45.49-149.48,2.6-25.28,1.61-52.65-13-73.41-11.29-16-29.11-25.84-44.43-38-27.84-22.16-47.72-52.49-68.63-81.28s-44.26-57.37-76-73.5C1353.37-35.11,1289-44.32,1275.75-7.43,1263.59,26.41,1305.53,85.4,1324.91,110.23Z" style="fill:none;stroke:#d8d8d8;stroke-miterlimit:10;stroke-width:2px"/><path d="M1373.5,240.21c3.12,13.41,15.51,21.9,25.86,30.81a141.7,141.7,0,0,1,45.94,78c3,14.91,4.47,32.14,16.79,41.42,8.72,6.56,20.57,6.63,30.51,2.79a38.05,38.05,0,0,0,7.38-3.79c10.89-7.22,17.48-18.69,24.24-30.08a213.33,213.33,0,0,0,17.67-37.17c10.47-29.67,15.23-60.06,16.11-90.76.6-20.84-1.06-43.23-13.19-60.67-9.35-13.45-23.59-22.27-36-32.86-22.47-19.25-39-44.61-56.25-68.83s-36.46-48.17-61.78-63a86.26,86.26,0,0,0-13-5.95c-24.57-9.22-61.59-11.61-71.91,14.59-9.86,25,13.68,65.23,31.44,89.73,3.32,4.58,6.46,8.69,9.19,12.15,17.17,21.85,39.07,44.78,36.48,72.18C1381.36,206.33,1369.5,222.92,1373.5,240.21Z" style="fill:none;stroke:#d8d8d8;stroke-miterlimit:10;stroke-width:2px"/><path d="M1394.88,227c2.36,10.31,11.07,17.27,18.56,24.44,16.77,16,29.88,37.26,36.15,59.39,3.1,11,5.24,23.54,14.63,30.73,6.65,5.08,15.39,5.8,22.85,3.93a31.53,31.53,0,0,0,5.61-2c8.37-4,13.69-11.15,19.88-18.48A90.12,90.12,0,0,0,1529,295c7.91-25.38,7.69-51,5.64-76.37-1.32-16.36-3.74-33.81-13.34-47.94-7.41-10.88-18.07-18.69-27.49-27.68-17.11-16.32-30.24-36.73-43.88-56.37s-28.63-39-47.57-52.48a82.57,82.57,0,0,0-9.71-5.68c-19-9.79-47-13.4-56.6,8.45-9.51,21.58,9.5,55.65,24.31,75.9,2.75,3.76,5.41,7.2,7.8,10.2,14.6,18.38,32.64,37.37,32,60.39C1399.81,198.14,1391.59,212.4,1394.88,227Z" style="fill:none;stroke:#d8d8d8;stroke-miterlimit:10;stroke-width:2px"/><path d="M1416.26,213.75c1.59,7.22,6.64,12.64,11.26,18.07a177,177,0,0,1,26.37,40.75c3.19,7.13,6,14.95,12.47,20a25.28,25.28,0,0,0,15.17,5.06,28.47,28.47,0,0,0,3.85-.16c5.86-.7,10.25-3.48,15.52-6.88,7-4.5,12.81-13.47,15.18-22.84,5.35-21.1.39-41.91-4.81-62-3.08-11.85-6.43-24.39-13.51-35.19-5.46-8.33-12.55-15.12-19-22.5-11.74-13.41-21.5-28.85-31.51-43.92s-20.77-29.93-33.35-42c-1.92-1.83-4.14-3.59-6.43-5.42-13.31-10.59-32.38-15.2-41.27,2.32-9.2,18.11,5.31,46.08,17.17,62.07,2.18,2.94,4.35,5.7,6.41,8.25,12,14.9,26.2,29.95,27.6,48.59C1418.26,189.94,1413.66,201.88,1416.26,213.75Z" style="fill:none;stroke:#d8d8d8;stroke-miterlimit:10;stroke-width:2px"/><path d="M1406.37,129.53c10.48,13.79,24.17,26.25,28.17,43.1,2.17,9.11,1.23,18.72,3.1,27.9,4.25,20.85,21.84,35.94,38.36,49.35,3.89,3.15,8.24,6.47,13.24,6.36,7.59-.17,12.7-8.17,13.94-15.67,2.79-16.81-6.42-33-15.28-47.61L1422.29,85.11c-7.18-11.8-17.86-17-26-3.82C1387.39,95.89,1397.45,117.79,1406.37,129.53Z" style="fill:none;stroke:#d8d8d8;stroke-miterlimit:10;stroke-width:2px"/><path d="M1418.71,574.57a125.39,125.39,0,0,1-76.49,45c-15.76,2.65-34.29,3.49-43.44,16.58-11.62,16.62.77,38.89,1.77,59.14,1.21,24.43-14.62,45.87-26.07,67.48s-17.9,50.89-1,68.53c11.85,12.33,30.78,14,47.89,13.84,63.48-.71,125.95-16.8,185.44-39,29.49-11,58.78-23.68,83.68-42.92s45.29-45.77,51.94-76.53c8.87-41-8-84.4-35.57-116s-64.71-53.25-102.26-72c-20-10-45.43-24.36-56.86,2.61C1436.94,526.91,1437.18,551.42,1418.71,574.57Z" style="fill:none;stroke:#d8d8d8;stroke-miterlimit:10;stroke-width:2px"/><path d="M1339.44,725.66c-1.86,14.75-10.25,27.74-15.44,41.67s-6.49,31.4,3.91,42c12.5,12.77,33.64,8.51,50.71,3.22,21.94-6.79,46.12-15.69,56.13-36.37,6.06-12.52,5.59-27.49,1.2-40.69s-12.36-24.92-21-35.83c-11.41-14.42-34.18-48.18-56.11-43C1328.62,663.75,1342,705.25,1339.44,725.66Z" style="fill:none;stroke:#d8d8d8;stroke-miterlimit:10;stroke-width:2px"/><path d="M1470.92,738.24c2.58,12,5.15,25.71,15.66,32,14.17,8.46,31.7-2.41,44.52-12.8,22.68-18.38,46-37.52,59.37-63.46s14.24-60.7-5.92-81.81c-14-14.71-35.74-20.6-48.8-36.19-9.41-11.24-13.21-26.23-22.07-37.91s-27.39-18.92-37.79-8.6c-2.82,2.79-3.09,22.74-4.65,27.73a109.72,109.72,0,0,1-32.82,49.74c-5,4.27-23,11.53-25.22,16.7-4.2,9.61,26.55,40,32.87,50.8A218.07,218.07,0,0,1,1470.92,738.24Z" style="fill:none;stroke:#d8d8d8;stroke-miterlimit:10;stroke-width:2px"/><path d="M1473.42,664.9c5,15.65,13.17,30.09,21.25,44.4,3.79,6.72,8.86,14.27,16.56,14.65,8,.39,13.81-7.11,18.16-13.8,7.1-10.92,14.3-22.06,17.78-34.61s2.74-27-5.08-37.37c-5.79-7.7-14.64-12.33-22.54-17.85s-15.53-13-16.53-22.59c-.56-5.35.7-11.74-3.32-15.32s-10.66-1.37-13.87,2.85c-5.84,7.64-12.24,25.86-15.35,35.31C1465.92,634.43,1469.08,651.41,1473.42,664.9Z" style="fill:none;stroke:#d8d8d8;stroke-miterlimit:10;stroke-width:2px"/><path d="M1682.15,688c4.84-55.06-17.46-111.87-58.47-148.94-24-21.7-55.5-39.18-65-70.11-5.41-17.63-2.41-36.93,4.28-54.11,6.1-15.63,16.32-31,32.08-36.77,23.15-8.45,48.82,7.36,62.85,27.63s20.6,44.77,33,66c27.38,46.76,81.19,75,103.2,124.49,7.65,17.21,11.11,36.4,21.47,52.13,13.76,20.91,37.53,32.59,60.25,43.09,19.86,9.18,40.12,18.4,56.48,32.92s28.53,35.47,27.06,57.29c-2.29,33.86-35.24,57.41-67.43,68.15-89.87,30-189-.75-282.52,14.51-7.33,1.2-15.63,2.46-21.52-2.07-6.3-4.84-6.81-14.61-3.32-21.74,6.18-12.61,20.53-19.71,31-28.21a181.28,181.28,0,0,0,33-35C1667.32,751.1,1679.33,720,1682.15,688Z" style="fill:none;stroke:#d8d8d8;stroke-miterlimit:10;stroke-width:2px"/><path d="M1599.9,473.52c7.36,16,22.29,26.87,35.29,38.74,47.94,43.77,74.27,110.15,69.38,174.88-.64,8.37-1.75,16.92.33,25.06s8.29,15.9,16.63,16.83c12.23,1.35,21.22-12.17,22.3-24.42s-2.53-24.67-.64-36.83c3.26-21.07,22.29-37.45,24.27-58.67,1.68-18-9.47-34.79-22.67-47.1s-28.91-21.93-40.9-35.43c-15.47-17.41-23.6-40-35.19-60.15-8.84-15.42-28.89-43.65-50-41.25S1592.6,457.64,1599.9,473.52Z" style="fill:none;stroke:#d8d8d8;stroke-miterlimit:10;stroke-width:2px"/><path d="M1716.07,599.38c-.31,5.5,2,11.53,7,13.91,5.39,2.58,12.29-.14,15.68-5.06s3.79-11.41,2.53-17.26c-2.91-13.46-13.47-23.88-24.45-32.19s-23.09-15.56-31.57-26.41c-9.37-12-13.39-27.23-20.45-40.72s-19.38-26.33-34.6-26.11l40.91,64.93c8.09,12.83,16.45,26.09,27.66,36.47,4.43,4.11,15.13,8.25,18,12.84C1721.52,587.26,1716.57,590.63,1716.07,599.38Z" style="fill:none;stroke:#d8d8d8;stroke-miterlimit:10;stroke-width:2px"/><path d="M1652.31,808.89c-4,4.74-8.36,10.7-6.44,16.63,2.37,7.31,12,8.61,19.68,8.59l162.75-.33c18.75,0,38-.17,55.4-7.21s32.61-22.71,33.32-41.44c.92-24.47-21.87-43.06-44.16-53.21s-47.61-17.09-63.14-36c-7.17-8.75-14.12-20.88-25.41-20.25-13.48.76-17.82,18.4-17.81,31.89,0,11.23.35,22.88-4.14,33.18s-15.47,18.76-26.43,16.3c-17.93-4-25.42-16.67-40.6-.66S1666.79,791.92,1652.31,808.89Z" style="fill:none;stroke:#d8d8d8;stroke-miterlimit:10;stroke-width:2px"/><path d="M1761.65,776c-16.73,5.42-34.8,5.79-51.44,11.48-4.28,1.46-8.58,3.37-11.54,6.78s-4.19,8.68-1.84,12.53c3.08,5,10.14,5.37,16,5.13L1828.3,807c10.06-.42,20.64-1,29.18-6.33s14-17.15,8.82-25.82c-9.44-16-39.82-5-49.12-21-2.26-3.9-2.58-8.59-3.75-13-5.63-21.15-15-3.62-18.64,5C1788.42,761,1777.56,770.81,1761.65,776Z" style="fill:none;stroke:#d8d8d8;stroke-miterlimit:10;stroke-width:2px"/><path d="M1928.16,678.58c29-4.08,53.85-25.24,67.22-51.31s16.38-56.45,13.82-85.64c-6.77-77.11-53.07-149.7-120.14-188.34-19.28-11.11-41-19.7-63.18-18.35-24.5,1.49-46.82,14.91-65.2,31.17-19.87,17.59-37.23,41.2-36.93,67.73.28,24.55,15.41,46.11,29.91,65.92q45.75,62.43,91.49,124.87C1869.29,657.6,1884.06,678.58,1928.16,678.58Z" style="fill:none;stroke:#d8d8d8;stroke-miterlimit:10;stroke-width:2px"/><path d="M1831.92,365.43c-19.64,2.7-37.14,14.34-51.16,28.51-15.14,15.19-27.89,35.05-27,56.88.88,20.32,13.21,38.25,25.53,54.15,13.61,17.54,28,34,41.68,51.53,13.51,17.38,26.88,35.36,40.5,52,20,24.43,31.48,40.6,65.61,40.13,22.64-3.45,41.87-20,52.74-40.18,7.87-14.61,11.91-31,13-47.67a168.78,168.78,0,0,0-.32-25.64c-3.28-37.89-18.31-74.47-41.64-104.34a196,196,0,0,0-64.82-53.62C1869,368.6,1850.34,362.89,1831.92,365.43Z" style="fill:none;stroke:#d8d8d8;stroke-miterlimit:10;stroke-width:2px"/><path d="M1838,395.91c-14.76,3.82-27.42,13.82-37.12,25.86-10.36,12.84-18.59,28.91-17.06,46,1.44,16.11,11,30.38,21.16,42.39,11.91,14.16,25.45,26.18,37.39,40.36s23.27,29.23,35.46,41.86c15.47,16,24,27.23,48.23,26.3,16.27-2.81,30-14.76,38.25-29.05A92.87,92.87,0,0,0,1976,550.11a133.32,133.32,0,0,0-.13-21.43c-2.68-31.69-15.91-62.24-36.38-86.32a153.52,153.52,0,0,0-56.4-41.26C1868.31,395,1852.64,392.11,1838,395.91Z" style="fill:none;stroke:#ccc;stroke-miterlimit:10;stroke-width:2px"/><path d="M1844,426.4c-9.88,4.73-17.73,13.25-23.09,23.19-5.62,10.45-9.25,22.77-7.12,35.18,2,11.88,8.94,22.45,16.78,30.62,10.29,10.73,22.85,18.37,33.12,29.18s19.33,23.16,30.42,31.72c10.36,8,16.62,13.86,30.84,12.48,9.89-2.18,18.22-9.43,23.75-17.93a68.78,68.78,0,0,0,10.44-31.4,99.26,99.26,0,0,0,0-17.24,112.46,112.46,0,0,0-31.11-68.29c-11.8-12.18-29.71-23.66-48-28.91C1867.58,421.45,1855,421.16,1844,426.4Z" style="fill:none;stroke:#ccc;stroke-miterlimit:10;stroke-width:2px"/><path d="M1856.23,520.6c8.81,7.16,20.26,10.56,28.84,18s14.48,18.8,25.39,21.57c8.2,2.09,17.14-1.76,22.71-8.14s8.18-14.86,9.15-23.27a72.74,72.74,0,0,0-25.62-63.3c-15.41-12.64-49.79-25.77-66.63-8.58C1834.23,473.05,1839.88,507.33,1856.23,520.6Z" style="fill:none;stroke:#ccc;stroke-miterlimit:10;stroke-width:2px"/><path d="M1607.81,268.73c-3.06,9.57-7.33,18.84-8.82,28.77s.36,21.1,7.79,27.86c12.19,11.08,32.34,5.43,46.94,13.05,15.58,8.13,23.57,30.51,41.13,31,14.7.38,23.86-15,33.09-26.41,16.27-20.18,41.15-32.33,66.75-36.35s51.94-.44,76.86,6.71c18.81,5.41,40.08,12.58,56.86,2.51,16.1-9.66,20.3-32.85,12.43-49.9s-25-28.26-42.89-34-36.87-6.71-55.52-8.81-37.71-5.51-53.73-15.3c-30.72-18.79-43.81-56.46-69-82.2-27-27.55-68.55-39.85-106.16-31.4-14.47,3.25-36.43,12-39.8,28.55-3.11,15.27,11.26,29.57,18.67,41.25C1612,195,1619.11,233.42,1607.81,268.73Z" style="fill:none;stroke:#d8d8d8;stroke-miterlimit:10;stroke-width:2px"/><path d="M1621.34,160.73c3.28,11,11.37,19.83,15.87,30.34,8.4,19.61,3.48,42,1.65,63.21s1.52,46.19,19.66,57.41c16.66,10.3,38.74,4.28,55.47-5.91s31.29-24.29,49.62-31.2c28.32-10.69,59.73-2.39,89.56,2.73,6.52,1.12,13.36,2.06,19.64,0s11.77-8.08,11-14.65c-1.13-9.76-13.47-13.22-23.29-13.45-34.59-.84-72.35,8.61-101.76-9.62-16.75-10.38-27.42-28-36.72-45.41S1703.8,158.6,1689,145.61C1671.59,130.38,1609.12,119.93,1621.34,160.73Z" style="fill:none;stroke:#d8d8d8;stroke-miterlimit:10;stroke-width:2px"/><path d="M1672.59,259.59c.9,7.72,2.37,16.43,8.82,20.75,4.67,3.13,10.91,3,16.2,1.13s9.81-5.39,14.26-8.83c9.4-7.27,19.85-17,18-28.73-1.61-10-11.39-16.08-19.52-22.08A112.16,112.16,0,0,1,1684,194.21c-4.82-7.18-8.16-24.81-17.12-18.47C1655.54,183.72,1671.05,246.46,1672.59,259.59Z" style="fill:none;stroke:#d8d8d8;stroke-miterlimit:10;stroke-width:2px"/><path d="M1506.42,60.61c8.74,11.32,19.58,22.69,33.75,24.63,15.75,2.15,30.19-7.86,44.12-15.5A167.91,167.91,0,0,1,1674,49.44c22.77,1.29,46,7.68,63.38,22.38,13.51,11.39,22.68,26.93,32.75,41.44,22.06,31.8,50.78,60.66,87.16,73.85s81.31,7.54,107.47-21c15-16.34,22.57-38.43,24.83-60.48s-.42-44.31-3.72-66.24c-4.48-29.69-10.73-60.62-29.79-83.82-23-28-60.44-39.54-96.18-45.83-81.94-14.43-166.14-9-248.59,2.21-27.39,3.71-55,8.14-80.44,19-21.06,9-54.57,29.21-60.64,53.72C1464.27,8.78,1492.82,43,1506.42,60.61Z" style="fill:none;stroke:#d8d8d8;stroke-miterlimit:10;stroke-width:2px"/><path d="M1662.22-72.26c-21.71.81-43.87,1.27-65.25,6.85-7.41,1.93-15.36,5.17-19.52,10-14,7.06-35.73,21.41-39,38.41-3.16,16.7,16.63,40.18,27,51.81,7.07,7.91,15.94,15.08,26.83,16.12A34.79,34.79,0,0,0,1606.64,49c6.84-2.24,13.45-5.89,19.94-8.91a134.83,134.83,0,0,1,69.12-11.91c17.38,1.59,35,6.76,48.71,17.55a82.73,82.73,0,0,1,8.95,8.28c6.4,6.8,11.91,14.46,17.71,21.78,18.21,23,40.85,44.13,68.76,54.34a96.27,96.27,0,0,0,40.19,5.56c16-1.26,31.65-6.86,42.71-18.62s16.57-28.13,18-44.42-.67-32.58-3.52-48.54c-4.29-24-10.7-48.79-26.83-67-17.27-19.49-43.8-28-69.55-32.24a349.12,349.12,0,0,0-45.29-4.53C1749.74-81.23,1708.38-74,1662.22-72.26Z" style="fill:none;stroke:#d8d8d8;stroke-miterlimit:10;stroke-width:2px"/><path d="M1713.13-56.48c-23.3-1.72-46.93-3.39-70.1,1.89-8,1.82-17.22,5.92-19,12.72-6.88,5.1-16.9,13.61-17.28,23.1-.37,9.33,10.87,22,17.87,27.72a32.31,32.31,0,0,0,19.9,7.6,35.06,35.06,0,0,0,10-1.43c4.88-1.31,9.64-3.23,14.35-4.75a105,105,0,0,1,48.52-3.5c12,1.88,24,5.83,34,12.72a73.92,73.92,0,0,1,6.67,5.2c4.89,4.24,9.32,8.94,13.9,13.48,14.36,14.24,30.92,27.59,50.36,34.82a82.88,82.88,0,0,0,27.86,5.22c11.11.1,22.56-2.37,30.48-10.36,7.4-7.47,10.57-17.83,11.14-28.36.58-10.28-1-20.85-3.31-30.84-4.2-18.34-10.55-37-23.87-50.16-11.27-11.11-27.17-16.43-42.93-18.65a163.47,163.47,0,0,0-27.63-1.68C1764.25-60.86,1743.59-54.23,1713.13-56.48Z" style="fill:none;stroke:#d8d8d8;stroke-miterlimit:10;stroke-width:2px"/><path d="M1689.1-43.78c-8.65,1.72-19.09,6.68-18.49,15.48.42,6.27,6.86,10.65,13.1,11.42s12.47-1,18.7-1.84c20.84-2.82,41.62,5,60.45,14.32S1800,16.16,1820.43,21c6.2,1.46,13.44,2.07,18.25-2.1,6.84-5.94,4.3-16.93,1.19-25.44-4.58-12.54-9.8-25.92-20.91-33.33a32.41,32.41,0,0,0-26.27-3.88c-13.9,3.84-13.56,7.15-28.65,3.09C1739.55-47.31,1714.05-48.74,1689.1-43.78Z" style="fill:none;stroke:#d8d8d8;stroke-miterlimit:10;stroke-width:2px"/><path d="M585.69,762.37c-8.09-19.52-24.87-36.84-45.83-39.47C511.1,719.28,486,743,457.27,747c-19.16,2.67-38.73-3.82-55-14.29s-29.7-24.73-42.65-39.11q-38.36-42.61-73-88.42c-15.44-20.42-30.53-41.74-38.25-66.15-6.73-21.3-7.58-44.14-14.57-65.36s-22.79-42-44.95-44.81c-19.56-2.48-38.93,10.61-47.67,28.27s-8.22,38.78-2.77,57.73,15.41,36.22,25.22,53.32q31,54.07,61.22,108.64c14.58,26.37,29.22,53.38,34.81,83,3.21,17,3.67,35.34,13.41,49.61,13.11,19.17,38.49,24.76,61.46,28.16,58.13,8.6,117.31,12.91,176,7.61,18.94-1.71,66.72-1.25,80.56-15.67C603.87,816.24,591.63,776.7,585.69,762.37Z" style="fill:none;stroke:#d8d8d8;stroke-miterlimit:10;stroke-width:2px"/><path d="M561.88,798.86c-4.66,17.14-25.63,23.25-43.34,24.71-52.89,4.36-105.69-6.89-157.57-18.08-17.93-3.86-36.45-8-51.27-18.8-27.82-20.3-35.18-57.68-47-90-24.5-67-75.92-124.15-86.23-194.71-1-6.5-1.49-13.37,1.09-19.41s9.22-10.81,15.57-9.16c6.58,1.72,9.83,8.94,12.16,15.33,18.36,50.23,35.64,101.21,61.86,147.82s62.4,89.21,109.94,113.69c34.1,17.56,74.53,24.73,112.33,17,14.31-2.91,33.16-15.8,47.66-11.24C552,760.71,566,783.74,561.88,798.86Z" style="fill:none;stroke:#d8d8d8;stroke-miterlimit:10;stroke-width:2px"/><path d="M110.23,466.52c3.4-22.08,3.35-48.76-14.79-61.79C84.9,397.16,71,396.54,58,397.24c-43.55,2.38-88,17.93-117.14,50.35-17.73,19.7-28.34,45.15-31.27,71.46s1.81,53.47,14.77,76.58S-41.94,637-18,648.2s51.22,15.46,77.27,10.62c27.41-5.1,54.63-21.31,64.4-47.42,9.65-25.81.63-54.36-8.5-79C106.57,509.18,106.45,491.12,110.23,466.52Z" style="fill:none;stroke:#d8d8d8;stroke-miterlimit:10;stroke-width:2px"/><path d="M-41.93,467.17a93.88,93.88,0,0,0-24,52.88A93.41,93.41,0,0,0-54.62,577.2C-44.74,594.38-29,607.71-11,615.66c17.07,7.52,36.23,10.37,54.6,6.85,19.32-3.72,38.23-15.15,45.82-33.17,7.85-18.68,3.2-39.61-2.88-58.17-4.12-12.63-5.8-23.53-4.76-35.41.42-4.73,1.28-9.57,2.28-14.79a84.86,84.86,0,0,0,1.44-10.52c.95-14-2.68-28.12-13.94-35.44-7.94-5.15-18.06-5.55-27.56-4.91a162.35,162.35,0,0,0-17.63,2.21c-3.21.58-6.52,1.23-9.62,2.12-1.84.53-3.52,1.22-5.34,1.82-3.17,1.06-6.39,2-9.56,3.09a118.86,118.86,0,0,0-16.34,7A101.25,101.25,0,0,0-41.93,467.17Z" style="fill:none;stroke:#d8d8d8;stroke-miterlimit:10;stroke-width:2px"/><path d="M-24.76,486.76a60,60,0,0,0-16.76,34.3A57.9,57.9,0,0,0-4,583.13C6.19,587,17.3,588.41,28,586.19c11.23-2.32,22-9,27.24-18.92C61.36,555.72,61,542.42,58,529.91c-2.05-8.6-3.59-16.4-2.37-24.51a93.17,93.17,0,0,1,2.39-10,41.11,41.11,0,0,0,1.36-7.17c.78-9.55-3.46-18.74-11.57-23-5.31-2.77-11.67-2.92-17.71-2.34a106.32,106.32,0,0,0-11.2,1.73,37.88,37.88,0,0,0-6.08,1.56c-1.09.44-1.89,1.14-3,1.63a50.12,50.12,0,0,1-6.08,2A71.72,71.72,0,0,0-6.86,474,65.64,65.64,0,0,0-24.76,486.76Z" style="fill:none;stroke:#d8d8d8;stroke-miterlimit:10;stroke-width:2px"/><path d="M23.92,495.58c-4.27-.8-8.57.25-12.63,1.5a6.39,6.39,0,0,0-2.53,1c-.35.34-.27,1.08-.65,1.45a4.46,4.46,0,0,1-2.61.83,26.44,26.44,0,0,0-4.77,1.27,28.64,28.64,0,0,0-8.31,4.72,26.15,26.15,0,0,0-9.51,15.73c-2.13,12.77,7.34,26.56,20.14,28.52A23.09,23.09,0,0,0,21,545.21c5-4.12,8.33-10.1,8.35-16.57,0-4.56-1.39-9.26,0-13.6,1-3.1,3.38-5.73,3.77-9C33.73,501,29,496.52,23.92,495.58Z" style="fill:none;stroke:#d8d8d8;stroke-miterlimit:10;stroke-width:2px"/><path d="M177.1,655.59c-3.82-6.75-8.37-14.1-15.85-16.17-10.34-2.87-20,5.6-28.12,12.58a151.07,151.07,0,0,1-75,34.35c-22.29,3.39-45.19,1.74-67.33,6S-54,708.77-61.95,729.89c-6.15,16.42-2.21,34.78,3,51.51,5.57,17.83,13,35.89,26.87,48.4,14.94,13.48,35.51,18.8,55.48,21.26,56.74,7,113.86-5.62,169.64-18.14,12.68-2.84,26.66-6.57,33.63-17.54s4.45-24.87,1.79-37.41c-4.07-19.17-5.89-40.41-14.92-58C202.31,698.16,189.36,676.91,177.1,655.59Z" style="fill:none;stroke:#d8d8d8;stroke-miterlimit:10;stroke-width:2px"/><path d="M73.32,697.76c-16.88,3.17-33.2,4.39-49.81,8.37s-34,11.79-40.82,27.32c-5,11.47-2.83,24.6.3,36.65C-13.67,783-8.74,796,.91,805.38,11.57,815.71,26.75,820.12,41.58,822c24.9,3.2,49.93.57,74.68-3.9C133.57,815,150.8,811,167.89,807c9.44-2.22,19.9-4.91,25.37-12.67,5.09-7.23,3.69-16.82,2.27-25.34-2.17-13-3.74-27.13-8.54-39.66a197.79,197.79,0,0,0-11.2-24.49c-5.29-9.57-11.1-19-17-27.9-3-4.58-6.23-9.72-11.55-11.21-7.37-2.05-14.29,3.53-20.22,8.17A125.41,125.41,0,0,1,73.32,697.76Z" style="fill:none;stroke:#d8d8d8;stroke-miterlimit:10;stroke-width:2px"/><path d="M88.52,727.17c-11.47,3-21.2,7.06-32.27,10.72-10.85,3.6-23.18,7.16-28.91,17.12-3.77,6.54-3.45,14.43-2.42,21.8,1.12,7.91,3.54,16,9,22.16,6.36,7.21,16.17,10.67,25.86,12,16.4,2.31,32.92-.28,49.11-3.77,11.34-2.45,22.64-5.35,33.87-8.24,6.19-1.59,13.08-3.24,17.11-7.79,3.23-3.66,2.94-8.77,2.75-13.27-.26-6.87.13-14.58-2.17-21.38.26-6-2.9-13.06-6.16-19.36a114,114,0,0,0-13.72-21c-2.08-2.46-4.08-5.33-7.25-6.23-4.4-1.23-8.6,1.45-12.33,3.76C111.35,719.73,99.87,724.18,88.52,727.17Z" style="fill:none;stroke:#d8d8d8;stroke-miterlimit:10;stroke-width:2px"/><path d="M72,758.57c-4.72,3.75-7.64,10.51-5.12,16,1.94,4.19,6.52,6.6,11.06,7.41,7.9,1.41,15.92-1.13,23.55-3.64l25-8.22c2.76-.91,5.7-2,7.43-4.29,3-4,1-9.68-1.13-14.23-2.48-5.41-5.27-11.17-10.46-14.09-5.64-3.17-12.9-2.1-18.54,1.08-5.92,3.33-9.21,9.67-14.74,13.07C83.76,754.86,77.11,754.48,72,758.57Z" style="fill:none;stroke:#d8d8d8;stroke-miterlimit:10;stroke-width:2px"/><path d="M28.36,370.73c15.26-7.25,29.16-18.75,35.9-34.24,5.47-12.59,5.85-26.71,6.16-40.43L71.56,244c.16-7.29.16-15.14-4-21.13-7.48-10.73-23.54-9.69-36.19-6.36a221.89,221.89,0,0,0-91.95,49.81c-12.17,11-23.84,25.34-22.83,41.73.89,14.18,11,25.83,20.61,36.3,10,10.95,25.86,37,40.88,40.16C-8.13,387.44,16.23,376.52,28.36,370.73Z" style="fill:none;stroke:#d8d8d8;stroke-miterlimit:10;stroke-width:2px"/><path d="M-60.67,309c1.77,9.94,8.74,18.2,16,25.3,7.77,7.58,19.57,25,30.73,26.57s29-7.28,38.78-12.23c10.76-5.44,20.74-13.46,25.83-24.32,4.13-8.82,4.8-18.71,5.43-28.37.81-12.39,1.56-24.95,1.9-37.52.14-5.29,0-10.9-2.78-15.36-5.65-9-17.31-9.53-27.17-7.79C1.59,240-25.72,254.44-45.2,272.75-55.45,282.39-63,295.89-60.67,309Z" style="fill:none;stroke:#d8d8d8;stroke-miterlimit:10;stroke-width:2px"/><path d="M-37.92,310c2.22,5.67,6.49,10.56,11.45,14.31,5.54,4.21,13.35,13.45,20.58,13,8.47-.55,19.85-6.5,27.28-10.67,6.29-3.53,12.31-8.17,15.75-14.4,2.8-5.06,3.76-10.71,4.71-16.31a178.2,178.2,0,0,0,2.64-23c.12-3.28-.05-6.69-1.53-9.58C39.18,256,31.88,254,24.8,254.13c-19,.43-41.67,12.13-54.61,25C-38.11,287.46-41.9,299.9-37.92,310Z" style="fill:none;stroke:#d8d8d8;stroke-miterlimit:10;stroke-width:2px"/><path d="M-14.41,285.58c-6.26,7.05-7.83,19.18-.77,25.4,4.58,4,11.47,4.5,17.31,2.71S13,308.21,17.9,304.58c3.5-2.59,7.07-5.24,9.67-8.74s4.15-8,3.1-12.27C25.28,262-5.4,275.43-14.41,285.58Z" style="fill:none;stroke:#d8d8d8;stroke-miterlimit:10;stroke-width:2px"/><path d="M35.41,25.37c-4.93,3-8.5,9.05-6.7,14.52,1.43,4.36,5.87,7.41,6.69,11.93.71,3.93-1.44,8.36.63,11.77,2.19,3.59,7.68,3.39,11.28,1.22C55,60.16,57.47,50,64.28,44.09c2.49-2.14,5.47-3.64,8.11-5.6s5-4.6,5.53-7.85c.83-5.46-4.23-10.41-9.64-11.51-6-1.21-11.36,1.21-17.08,2.22C45.71,22.32,40.36,22.39,35.41,25.37Z" style="fill:none;stroke:#d8d8d8;stroke-miterlimit:10;stroke-width:2px"/><path d="M1.08,13.62c-9.11,6.58-16.27,17-16,28,.26,10.72,6.79,20.1,9.81,30.66a50.53,50.53,0,0,1,1.91,14c0,4.76-.46,9.44.34,14,.65,3.77,2.18,7.7,5.48,9.67,7.09,4.25,19.08-2.18,26.17-4.6,9-3.1,17.8-7.48,25.05-13.81,7-6.09,12.32-13.71,18.41-20.72A106.15,106.15,0,0,1,98.06,49.24c6.42-3.85,13.32-7.05,19.92-10.67s13-7.83,17.81-12.89a44.12,44.12,0,0,0,7.1-9.91c1.71-3.24,3.13-7.16,1.17-10.95-1.47-2.84-4.64-4.66-7.69-6A70.09,70.09,0,0,0,107-7.49C95.92-7.4,85-4.79,73.91-3.31,61.36-1.64,48.7-1.33,36.24.56S11.39,6.18,1.08,13.62Z" style="fill:none;stroke:#d8d8d8;stroke-miterlimit:10;stroke-width:2px"/><path d="M-35.14,1.82c-13.39,10-24.23,24.89-25.29,41.46-1.09,17.07,7.72,32.78,12.93,49.38a80.16,80.16,0,0,1,4,22.09c.17,7.45-.93,14.88-.15,22.22.74,6.95,3.49,14.27,9.53,17.8C-21.23,162.31,1,149,13.4,144.34c16.27-6.19,32.23-14.09,45.09-26.07,10.6-9.87,18.73-22.08,28.69-32.62,12.3-13,26.95-22.87,42.78-31.33,10.35-5.54,21.18-10.44,31.74-15.73s21-11.08,30.09-17.92a114.57,114.57,0,0,0,15.52-14c4.46-4.83,8.75-11.28,6.53-17.85-1.65-4.9-6.56-8-11.26-10.45a117,117,0,0,0-50.49-12.75c-19.23-.4-38.24,3.9-57.35,6.35-22.36,2.85-45,3.21-67.24,6.48S-17.09-11.73-35.14,1.82Z" style="fill:none;stroke:#d8d8d8;stroke-miterlimit:10;stroke-width:2px"/><path d="M63.1,145c14.26-13.65,25.14-30.45,39-44.53C148.61,53,222.15,41.89,271.69-2.39c7.21-6.43,14.38-15.42,11.91-24.76-1.85-7-8.48-11.46-14.84-14.86a163.5,163.5,0,0,0-71.62-19.23c-27.37-.89-54.43,5.11-81.61,8.51-32.17,4-64.73,4.44-96.81,9.1S-45.63-29.66-71.39-10C-89.06,3.54-103.61,22.83-106,45c-3.58,33.63,21,64.44,22.15,98.24.36,10.15-1.41,20.31-.63,30.44s4.81,20.83,13.59,25.93c18.65,10.82,51.1-9.32,68.84-16.27C21.51,174.08,44.67,162.63,63.1,145Z" style="fill:none;stroke:#d8d8d8;stroke-miterlimit:10;stroke-width:2px"/></svg>